<svg width="422" height="452" viewBox="0 0 422 452" fill="none" xmlns="http://www.w3.org/2000/svg">
<path d="M375 168.979C366 134.179 333.3 136.379 302.4 142.779C285.7 146.279 262.4 151.079 238 143.979C185.6 128.679 125.3 124.879 95.6 143.979C65.9 163.079 48 186.079 56.6 218.179C65.2 250.279 86.9 279.179 68.4 296.379C49.9 313.579 50.2 378.679 126.3 383.779C202.4 388.879 194.8 315.879 245.1 319.179C295.3 322.579 398.5 371.979 402.9 336.179C407.3 300.379 351.3 274.779 371.4 215.279C375.4 203.579 379.1 184.879 375 168.979Z" fill="#F5F5F5"/>
<path d="M200.1 112.079C200.1 112.079 202 99.5785 207.5 100.079C209 100.179 210 101.779 210.7 103.379C211.1 104.379 212.6 104.279 212.9 103.279C214.3 98.1785 217.3 90.4785 221.9 90.4785C226.6 90.4785 226.8 99.3785 226.5 104.679C226.4 105.479 227.5 105.879 228 105.179C229.3 103.379 231.1 101.579 233.3 102.079C237.6 103.079 236.5 111.979 236.5 111.979H200.1V112.079Z" fill="#F5F5F5"/>
<path d="M0 229.379C0 229.379 1.9 216.879 7.4 217.379C8.9 217.479 9.9 219.079 10.6 220.679C11 221.679 12.5 221.579 12.8 220.579C14.2 215.479 17.2 207.779 21.8 207.779C26.5 207.779 26.7 216.679 26.4 221.979C26.3 222.779 27.4 223.179 27.9 222.479C29.2 220.679 31 218.879 33.2 219.379C37.5 220.379 36.4 229.279 36.4 229.279H0V229.379Z" fill="#F5F5F5"/>
<path d="M385 179.479C385 179.479 386.9 166.979 392.4 167.479C393.9 167.579 394.9 169.179 395.6 170.779C396 171.779 397.5 171.679 397.8 170.679C399.2 165.579 402.2 157.879 406.8 157.879C411.5 157.879 411.7 166.779 411.4 172.079C411.3 172.879 412.4 173.279 412.9 172.579C414.2 170.779 416 168.979 418.2 169.479C422.5 170.479 421.4 179.379 421.4 179.379H385V179.479Z" fill="#F5F5F5"/>
<path d="M96 351.979C98.2 351.879 100 350.779 101.6 349.079C101.6 349.079 101.7 348.979 101.7 348.879C104.4 345.979 106.4 341.479 108.3 338.179C108.9 337.179 109.4 336.279 110 335.579C111.8 333.279 115 327.279 117.7 321.779C117.8 321.479 118 321.179 118.1 320.979C120.8 315.579 123 310.779 123 310.779C123 310.779 122 307.779 120.4 304.779C119.9 303.879 119.3 302.879 118.7 301.979C117.5 300.279 116.1 298.779 114.6 298.379C110 296.979 105.7 300.079 102.1 304.179C98.6 308.279 89 325.379 87.4 332.579C87.4 332.779 87.3 332.879 87.3 332.979C85.6 341.979 88.7 352.379 96 351.979Z" fill="#B0B1CA"/>
<path d="M96 351.979C98.3 351.879 100.1 350.679 101.7 348.979C96.6 351.379 93.6 349.979 91.8 347.979C89.6 345.479 88.8 338.579 89.3 335.679C90.7 328.579 95.9 317.479 98.6 313.079C101.3 308.679 106.5 301.379 111.7 300.679C114.6 300.279 117.1 301.179 118.7 302.079C117.5 300.379 116.1 298.879 114.6 298.479C110 297.079 105.7 300.179 102.1 304.279C98.5 308.479 88.6 326.279 87.3 333.079C85.6 341.979 88.7 352.379 96 351.979Z" fill="#2C2A40"/>
<path opacity="0.2" d="M96 351.979C98.2 351.879 100 350.779 101.6 349.079C101.6 349.079 101.7 348.979 101.7 348.879C104.4 345.979 106.4 341.479 108.3 338.179C108.9 337.179 109.4 336.279 110 335.579C111.8 333.279 115 327.279 117.7 321.779C117.8 321.479 118 321.179 118.1 320.979C117.2 319.979 116.1 319.479 114.6 319.979C114.6 319.979 111 323.279 107.6 330.179C103.9 337.679 101.9 344.779 94.9001 344.879C87.9001 344.979 89.2 340.379 88.2 333.679C88.1 332.779 87.8 332.479 87.4 332.579C87.4 332.779 87.3 332.879 87.3 332.979C85.6 341.979 88.7 352.379 96 351.979Z" fill="#2C2A40"/>
<path d="M211.9 414.779C212 418.679 215 444.379 223.4 449.579C227.6 452.179 230.1 452.079 231.3 450.179C232 449.079 232.3 447.379 232.3 445.179C232.3 443.679 232.2 441.879 231.9 439.879C230.8 430.479 230.6 408.679 238.9 403.879C238.9 403.879 237.4 392.579 233.5 385.679C232.3 383.579 231 381.879 229.3 380.979C229.3 380.979 223.5 380.979 219.9 381.479C218.3 381.679 216.2 381.579 214.2 382.179C211.6 382.879 209.2 384.679 208.6 389.479C207.6 398.079 211.8 410.879 211.9 414.779Z" fill="#B0B1CA"/>
<path d="M211.9 414.779C212 418.679 215 444.379 223.4 449.579C227.6 452.179 230.1 452.079 231.3 450.179C229.2 450.279 226.2 449.579 223.6 447.279C220 444.179 215.4 426.479 215.7 420.779C216 415.079 213.6 404.779 211.6 396.779C210 390.779 212.9 384.779 214.4 382.279C211.8 382.979 209.4 384.779 208.8 389.579C207.6 398.079 211.8 410.879 211.9 414.779Z" fill="#2C2A40"/>
<path opacity="0.2" d="M211.9 414.778C212 418.678 215 444.378 223.4 449.578C227.6 452.178 230.1 452.078 231.3 450.178C232 449.078 232.3 447.378 232.3 445.178C230.7 445.578 228.3 444.978 225.5 443.378C220.6 440.578 219.6 425.578 220.3 415.678C221 405.778 215.1 397.978 218.5 391.678C221.9 385.378 233.2 386.878 233.2 386.878C233.3 386.578 233.4 386.178 233.5 385.878C232.3 383.778 231 382.078 229.3 381.178C229.3 381.178 223.5 381.178 219.9 381.678C218.3 381.878 216.2 381.778 214.2 382.378C211.6 383.078 209.2 384.878 208.6 389.678C207.6 398.078 211.8 410.878 211.9 414.778Z" fill="#2C2A40"/>
<path d="M212.6 142.578C212.6 142.578 162.2 143.978 152.6 167.178C143 190.378 173.3 256.879 189.6 264.879C205.9 272.879 229 263.079 236.8 254.879C244.6 246.579 231.6 149.578 212.6 142.578Z" fill="#2C2A40"/>
<path d="M181.1 204.378C181.1 204.378 181 213.778 177.2 223.978C177.2 223.978 176.1 230.778 174.3 239.178C172.2 249.078 170.2 256.378 167.2 262.478C164.7 267.578 162.9 272.478 161.6 276.278C161.4 276.778 161.3 277.178 161.2 277.578C160 281.378 159.5 283.778 159.5 283.778L148.4 280.078C148.4 280.078 147.7 268.378 147.9 262.078C148.1 254.178 147.3 238.878 152.4 226.078C152.8 225.078 153.2 224.178 153.7 223.278C153.7 223.278 155.1 210.678 157.2 202.478C157.9 199.778 158.6 197.478 159.4 196.278C159.5 196.378 175.8 194.678 181.1 204.378Z" fill="#F9B587"/>
<path d="M160.9 224.578C160.9 224.578 154.5 224.678 152.4 226.178C152.8 225.178 153.2 224.278 153.7 223.378C153.8 223.478 158.7 223.178 160.9 224.578Z" fill="#F39568"/>
<path d="M181.1 204.378C181.1 204.378 181 213.778 177.2 223.978C177.2 223.978 176.1 230.778 174.3 239.178C175 232.878 174.5 221.478 174.6 213.078C174.7 207.378 169.6 206.078 165.1 204.478C163.2 203.778 159.6 203.078 157.4 202.378C157.3 202.378 157.2 202.478 157.1 202.478C157.8 199.778 158.5 197.478 159.3 196.278C159.5 196.378 175.8 194.678 181.1 204.378Z" fill="#F39568"/>
<path d="M157.9 275.278L168.5 282.778C169.6 283.578 170.3 284.878 170.3 286.278L170.5 296.478C170.5 297.678 169.6 298.678 168.3 298.678C167.3 298.678 166.4 297.978 166.1 296.978L163.7 287.378L161.2 286.478L162.8 292.178L164.7 297.378L169.5 303.378C170.2 304.278 170 305.578 169.1 306.178C168.3 306.778 167.2 306.678 166.5 305.978L160.1 299.378L155.8 294.178L159.2 300.778L165.7 310.478C166.1 311.078 166.1 311.978 165.7 312.578C165 313.578 163.6 313.678 162.8 312.878L155.8 305.878L151.8 299.678L155.3 310.678L158.4 317.678C158.7 318.478 158.5 319.378 157.7 319.778C156.9 320.278 155.9 320.078 155.4 319.278L150.9 311.978L147.7 303.578L149.8 310.878L151 313.378C151.2 313.878 151 314.478 150.5 314.778C150.1 314.978 149.5 314.878 149.2 314.478L147.5 312.078L144.9 306.078L148.5 280.278C148.6 280.078 150 276.578 157.9 275.278Z" fill="#F9B587"/>
<path d="M161.3 277.578C161.3 277.578 158 275.678 154.2 276.078C154.2 276.078 158.3 274.479 161.7 276.179L161.3 277.578Z" fill="#F39568"/>
<path d="M262.2 122.879C273.5 100.679 268.9 71.4785 268.1 64.0785C268 63.4785 267.7 62.5785 267.3 61.4785C263 51.2785 243.7 23.9785 239.3 17.7785C239 17.3785 238.8 17.0785 238.6 16.7785C238.5 16.5785 238.4 16.4785 238.4 16.4785L224.8 22.7785C224.8 22.7785 233.9 32.2785 237.5 44.2785C241.1 56.2785 249.7 71.9785 249.7 71.9785C245.9 85.8785 245.6 104.079 245.6 104.079C252.2 119.479 262.2 122.879 262.2 122.879Z" fill="#F9B587"/>
<path d="M262.2 122.879C273.5 100.679 268.9 71.4785 268.1 64.0785C268 63.4785 267.7 62.5785 267.3 61.4785C267.3 61.8785 267 85.3785 265.4 92.9785C263.9 100.679 261.4 108.679 256.9 109.779C252.4 110.879 248 108.279 245.5 104.179C252.2 119.479 262.2 122.879 262.2 122.879Z" fill="#F39568"/>
<path d="M238.3 17.5785C236.5 19.4785 228.6 24.8785 227.4 25.3785C227 25.5785 226.5 25.2785 225.9 24.8785C225.4 24.8785 221.9 24.9785 220 24.0785C219 23.5785 219 22.0785 219.3 20.5785C216.8 19.8785 212 15.9785 212.2 12.2785C212.4 8.27853 216.7 8.07853 216.7 8.07853C216.9 3.47853 221.2 4.37853 221.2 4.37853C221.5 2.37853 225.1 1.57853 225.1 1.57853C225.5 -0.121467 227.9 -0.321467 229.3 0.378533C230.7 1.07853 238.8 10.9785 239.1 12.6785C239.4 14.3785 238.3 17.5785 238.3 17.5785Z" fill="#F9B587"/>
<path d="M225.9 18.3786C226.4 20.6786 224.5 20.8786 224.5 20.8786C224.9 20.5786 224.9 19.5786 224.8 18.7786C224.8 18.7786 224.8 18.1786 224.6 17.4786C224.4 16.6786 223.9 15.8786 223 15.3786C221.3 14.5786 220.5 15.0786 220.5 15.0786L217.2 10.3786C218.9 11.4786 221.2 14.0786 221.2 14.0786C224.2 14.0786 225.3 16.2786 225.7 17.5786C226.3 17.5786 227 17.2786 227.2 16.4786C227.7 14.8786 226.7 13.1786 226.7 13.1786L222.1 6.77856C222.1 6.77856 228.4 12.9786 228.5 15.3786C228.7 18.4786 225.9 18.3786 225.9 18.3786Z" fill="#F39568"/>
<path d="M227 4.97852C227 4.97852 231.1 10.1785 231.6 11.5785C232.2 13.0785 231.2 14.5785 230.1 14.8785C229 15.1785 228.4 14.5785 228.4 14.5785V16.1785C228.4 16.1785 232.7 16.9785 232.7 12.8785C232.7 10.7785 227 4.97852 227 4.97852Z" fill="#F39568"/>
<path d="M232.4 11.8785C232.4 11.8785 233.4 12.8785 234.7 12.4785C236 12.0785 236.2 11.2785 236 10.4785C236 10.4785 236.7 11.2785 236.1 12.2785C235.2 13.6785 233.1 13.3785 232.5 13.1785L232.4 11.8785Z" fill="#F39568"/>
<path d="M236.7 19.3786C236.7 19.3786 238.3 19.0786 239.3 17.6786C239 17.2786 238.8 16.9786 238.6 16.6786C238.6 16.7786 238 18.0786 236.7 19.3786Z" fill="#F39568"/>
<path d="M227 25.3785C227 25.3785 229 25.1785 230.1 24.4785C230.1 24.4785 229.1 25.8785 227.6 26.1785L227 25.3785Z" fill="#F39568"/>
<path d="M249.7 71.9785C249.7 71.9785 255.6 71.0785 257.7 69.3785C257.7 69.3785 255.5 74.4785 249 74.6785L249.7 71.9785Z" fill="#F39568"/>
<path d="M113.5 328.979C115.9 330.779 114.8 331.179 117.2 332.479C119.5 333.679 125.5 338.679 125.9 338.979C141.6 355.679 168.1 381.679 182.5 383.579C196 385.479 216.2 347.479 229.1 319.579C229.2 319.379 234.5 311.579 242.3 313.879C250.3 316.179 279.6 343.679 293 350.679C293 350.679 274.9 351.579 269 359.179C263.1 366.779 246.6 373.979 243.6 375.179C240.6 376.379 239.1 375.079 236.3 376.879C233.5 378.679 229.3 380.979 229.3 380.979C229.2 389.379 232.3 396.679 238.5 404.079C238.5 404.079 241.1 402.679 243.5 401.979C246.9 400.979 254.1 399.079 255.4 396.679C256.7 394.279 301.2 384.979 301.2 384.979C301.2 384.979 335.4 378.179 338.1 361.979C340.8 345.779 271.3 272.779 271.3 272.779L265.9 249.379L240.8 253.479L195 256.979C195 256.979 187.2 277.979 185 296.979C183.5 309.679 175.1 339.879 175.1 339.879C175.1 339.879 167.4 331.879 152.3 325.479C148.4 323.879 144.5 322.079 140.7 320.279C140.7 320.279 135 317.379 133 314.679C131 311.879 129.8 312.979 127.6 312.379C125.4 311.779 123.6 309.079 122.2 309.379C120.8 309.679 120.3 310.379 120.3 310.379C116.6 313.879 115 316.079 112.5 324.579C112.7 324.379 111.1 327.179 113.5 328.979Z" fill="#2C2A40"/>
<path d="M154.4 333.779L153.9 334.579C155 335.279 156.1 336.079 157.3 336.979L157.9 336.179C156.7 335.279 155.5 334.479 154.4 333.779Z" fill="#5B5B6C"/>
<path d="M148.1 330.379L147.6 331.279C148.6 331.779 149.6 332.379 150.6 332.779C150.9 332.879 151.1 333.079 151.4 333.179L151.9 332.279C151.6 332.179 151.4 331.979 151.1 331.879C150.1 331.379 149.2 330.879 148.1 330.379Z" fill="#5B5B6C"/>
<path d="M141.5 327.779C142.7 328.479 144 329.179 145.2 329.879L145.7 329.079C144.5 328.379 143.3 327.679 142.1 326.979L141.5 327.779Z" fill="#5B5B6C"/>
<path d="M159.6 338.779C160.6 339.579 161.7 340.478 162.8 341.478L163.4 340.779C162.2 339.779 161.2 338.878 160.2 338.078L159.6 338.779Z" fill="#5B5B6C"/>
<path d="M170.9 347.379L170.3 348.079C171.7 349.279 172.6 350.079 173.3 350.479C173.5 350.579 173.6 350.679 173.8 350.779L174.2 349.879C174.1 349.779 174 349.779 173.9 349.679C173.2 349.279 172.3 348.579 170.9 347.379Z" fill="#5B5B6C"/>
<path d="M176.5 349.679L177 350.479C178 349.879 179.1 348.879 180.1 347.379L179.3 346.879C178.3 348.279 177.4 349.179 176.5 349.679Z" fill="#5B5B6C"/>
<path d="M165.6 342.678L165 343.378C165.9 344.178 166.8 344.978 167.6 345.778L168.1 346.278L168.7 345.578L168.2 345.078C167.4 344.278 166.5 343.478 165.6 342.678Z" fill="#5B5B6C"/>
<path d="M135.4 323.978C136.6 324.678 137.8 325.478 139 326.178L139.5 325.378C138.3 324.678 137.1 323.878 135.9 323.178L135.4 323.978Z" fill="#5B5B6C"/>
<path d="M118.6 313.879C118.4 314.179 118.1 314.479 117.9 314.779C118.7 314.879 119.8 315.079 121 315.379L121.2 314.479C120.2 314.179 119.3 314.079 118.6 313.879Z" fill="#5B5B6C"/>
<path d="M124 315.279L123.7 316.179C125.1 316.679 126.2 317.279 126.9 317.979C127 318.079 127 318.079 127.1 318.179L127.7 317.479C127.6 317.379 127.6 317.379 127.5 317.279C126.8 316.479 125.6 315.779 124 315.279Z" fill="#5B5B6C"/>
<path d="M130 319.178L129.4 319.978C130.4 320.678 131.6 321.478 132.9 322.378L133.4 321.578C132.2 320.778 131 319.978 130 319.178Z" fill="#5B5B6C"/>
<path d="M193.7 289.279L194.6 289.478C195 288.078 195.3 286.779 195.7 285.379L194.8 285.078C194.4 286.578 194 287.979 193.7 289.279Z" fill="#5B5B6C"/>
<path d="M195.5 282.479L196.4 282.779C196.8 281.379 197.2 280.079 197.5 278.779L196.6 278.479C196.3 279.679 195.9 281.079 195.5 282.479Z" fill="#5B5B6C"/>
<path d="M190.3 303.178L191.2 303.379C191.5 302.079 191.8 300.679 192.1 299.279L191.2 299.078C190.9 300.478 190.6 301.878 190.3 303.178Z" fill="#5B5B6C"/>
<path d="M191.9 296.178L192.8 296.379C193.1 295.079 193.5 293.679 193.8 292.279L192.9 292.078C192.6 293.478 192.2 294.878 191.9 296.178Z" fill="#5B5B6C"/>
<path d="M197.5 275.578L198.4 275.879C198.8 274.479 199.2 273.179 199.6 271.879L198.7 271.578C198.3 272.878 197.9 274.178 197.5 275.578Z" fill="#5B5B6C"/>
<path d="M180.7 344.478L181.6 344.879C182.2 343.779 182.8 342.378 183.4 340.978L182.5 340.578C181.8 342.078 181.3 343.278 180.7 344.478Z" fill="#5B5B6C"/>
<path d="M201.7 261.979L202.6 262.279C203.1 260.879 203.6 259.479 204 258.279L203.1 257.979C202.7 259.179 202.2 260.479 201.7 261.979Z" fill="#5B5B6C"/>
<path d="M199.5 268.779L200.4 269.079C200.8 267.679 201.3 266.379 201.7 265.079L200.8 264.779C200.4 265.979 200 267.379 199.5 268.779Z" fill="#5B5B6C"/>
<path d="M183.4 337.979L184.3 338.279C184.7 336.979 185.2 335.679 185.6 334.279L184.7 333.979C184.2 335.379 183.8 336.679 183.4 337.979Z" fill="#5B5B6C"/>
<path d="M188.8 310.178L189.8 310.379C190 309.079 190.3 307.679 190.6 306.279L189.7 306.078C189.3 307.478 189.1 308.878 188.8 310.178Z" fill="#5B5B6C"/>
<path d="M185.4 331.178L186.3 331.379C186.6 330.079 186.9 328.679 187.2 327.279L186.2 327.078C186 328.478 185.7 329.878 185.4 331.178Z" fill="#5B5B6C"/>
<path d="M186.8 324.278L187.8 324.478C188 323.078 188.2 321.678 188.4 320.278L187.4 320.178C187.2 321.478 187 322.878 186.8 324.278Z" fill="#5B5B6C"/>
<path d="M187.7 317.179L188.7 317.279C188.8 316.079 189.1 314.679 189.3 313.179L188.3 312.979C188.1 314.579 187.9 315.979 187.7 317.179Z" fill="#5B5B6C"/>
<path d="M246.9 309.178C245.5 309.178 244 309.378 242.6 309.778L242.9 310.678C244.2 310.278 245.5 310.078 246.9 310.078V309.178Z" fill="#5B5B6C"/>
<path d="M253.4 312.078L253.9 311.278C253.5 311.078 253.1 310.878 252.8 310.678C251.8 310.178 250.9 309.878 249.9 309.678L249.7 310.578C250.6 310.778 251.5 311.178 252.4 311.578C252.7 311.678 253 311.878 253.4 312.078Z" fill="#5B5B6C"/>
<path d="M255.9 373.978L256.3 374.879C257.6 374.279 258.8 373.578 260.1 372.978L259.7 372.078C258.4 372.778 257.2 373.378 255.9 373.978Z" fill="#5B5B6C"/>
<path d="M262.2 370.778L262.7 371.678C264 370.978 265.2 370.278 266.4 369.578L265.9 368.778C264.7 369.378 263.5 370.078 262.2 370.778Z" fill="#5B5B6C"/>
<path d="M268.3 367.178L268.8 367.978C270.3 367.078 271.4 366.278 272.3 365.578L271.7 364.778C270.9 365.478 269.8 366.278 268.3 367.178Z" fill="#5B5B6C"/>
<path d="M231.7 386.278C232.6 385.678 233.4 385.078 234.2 384.578L233.7 383.778C233 384.178 232.2 384.678 231.5 385.278C231.5 385.578 231.6 385.878 231.7 386.278Z" fill="#5B5B6C"/>
<path d="M236.2 382.278L236.7 383.178C238.1 382.478 239.4 381.878 240.5 381.578L240.2 380.678C239 380.978 237.7 381.478 236.2 382.278Z" fill="#5B5B6C"/>
<path d="M261.4 317.978C262.4 318.778 263.5 319.678 264.6 320.678L265.2 319.978C264.1 318.978 263 318.078 262 317.278L261.4 317.978Z" fill="#5B5B6C"/>
<path d="M243 379.778L243.3 380.678C244.4 380.278 245.7 379.778 247.2 379.078L246.8 378.178C245.4 378.878 244.1 379.378 243 379.778Z" fill="#5B5B6C"/>
<path d="M249.5 377.078L249.9 377.978C251.1 377.378 252.4 376.778 253.7 376.178L253.3 375.278C252 375.878 250.7 376.478 249.5 377.078Z" fill="#5B5B6C"/>
<path d="M239.3 312.478C239.6 312.278 240 312.079 240.3 311.879L239.8 311.078C239.1 311.478 238.5 311.878 238 312.178C238.5 312.178 238.9 312.278 239.3 312.478Z" fill="#5B5B6C"/>
<path d="M256.4 312.778L255.8 313.578C256.8 314.278 257.9 315.078 259.1 316.078L259.7 315.278C258.5 314.378 257.4 313.478 256.4 312.778Z" fill="#5B5B6C"/>
<path d="M298.2 355.879C297.7 356.179 296.6 356.678 294.8 357.078L295.1 357.978C297.1 357.478 298.2 356.978 298.8 356.578C298.9 356.478 299 356.379 299.1 356.279L298.5 355.578C298.4 355.678 298.3 355.779 298.2 355.879Z" fill="#5B5B6C"/>
<path d="M288.7 340.678L288.1 341.478C289.4 342.478 290.5 343.378 291.5 344.078L292 343.278C291.1 342.578 290 341.778 288.7 340.678Z" fill="#5B5B6C"/>
<path d="M294.5 344.678L294.1 345.578C295.5 346.178 296.6 346.978 297.5 347.678L298.1 346.978C297.2 346.178 295.9 345.378 294.5 344.678Z" fill="#5B5B6C"/>
<path d="M300.1 349.278L299.3 349.778C299.6 350.378 299.8 350.878 299.9 351.478C300 352.178 300 352.778 299.8 353.478L300.7 353.778C300.9 352.978 301 352.178 300.8 351.378C300.8 350.578 300.5 349.878 300.1 349.278Z" fill="#5B5B6C"/>
<path d="M289.9 358.278C289.2 358.478 288.6 358.578 287.9 358.778L288.1 359.678C288.8 359.478 289.5 359.378 290.1 359.178C290.8 358.978 291.5 358.878 292.2 358.678L292 357.778C291.3 357.978 290.6 358.078 289.9 358.278Z" fill="#5B5B6C"/>
<path d="M281 360.579L281.3 361.479C282.5 361.079 283.8 360.779 285.3 360.379L285.1 359.479C283.5 359.879 282.2 360.179 281 360.579Z" fill="#5B5B6C"/>
<path d="M274.2 363.178L274.6 364.078C275.6 363.578 276.9 362.978 278.4 362.478L278.1 361.578C276.6 362.078 275.3 362.578 274.2 363.178Z" fill="#5B5B6C"/>
<path d="M274.9 328.578C274.2 327.878 273.4 327.278 272.7 326.578L272 327.279C272.7 327.979 273.5 328.579 274.2 329.279L275.1 330.078L275.8 329.379L274.9 328.578Z" fill="#5B5B6C"/>
<path d="M277.3 332.078C278.4 333.078 279.4 333.978 280.4 334.878L281 334.178C280 333.278 278.9 332.278 277.9 331.378L277.3 332.078Z" fill="#5B5B6C"/>
<path d="M286.5 338.878C285.5 338.078 284.5 337.178 283.3 336.178L282.7 336.878C283.9 337.878 284.9 338.778 285.9 339.678L286.5 338.878Z" fill="#5B5B6C"/>
<path d="M270.6 324.678C269.5 323.678 268.5 322.778 267.5 321.878L266.9 322.578C267.9 323.478 269 324.478 270 325.378L270.6 324.678Z" fill="#5B5B6C"/>
<path d="M275.3 271.079C275.3 271.079 229.4 285.979 204.6 279.279C202.8 278.779 187.7 275.679 187.7 275.679C187.7 275.679 196.2 243.379 193.8 221.979C193.2 216.279 191.8 205.079 187.8 194.879C186.4 191.279 184.9 187.479 183.4 183.879C179.1 173.179 175.1 163.479 173.3 159.179C177 156.679 180 155.979 180.7 155.879C180.8 155.879 180.8 155.879 180.8 155.879C184.9 155.179 190.1 154.079 195.6 152.479C202.7 150.279 210.4 147.179 217.1 142.579L223.3 139.079L229.8 135.479C229.8 135.479 237.8 138.379 246.1 150.279C244 152.779 241.7 155.179 239.2 157.179C242.9 159.479 245.9 160.579 245.9 160.579C247.5 159.679 249 158.579 250.4 157.279C255.7 167.079 260.5 180.979 262.9 200.679C265 218.579 268.8 239.479 271.6 253.779C273.8 264.179 275.3 271.079 275.3 271.079Z" fill="#8695F0"/>
<path d="M208.1 160.079C199.6 159.379 197.6 155.279 195.8 152.579C202.9 150.379 210.6 147.279 217.3 142.679L221.4 140.379C222.6 140.379 225.4 142.479 225.4 146.779C225.4 152.579 219.4 161.079 208.1 160.079Z" fill="#2C2A40"/>
<path opacity="0.2" d="M235.3 172.378L250.2 165.678C250.2 165.678 261.8 183.078 252.3 186.478C242.2 190.178 235.3 172.378 235.3 172.378Z" fill="#2C2A40"/>
<path d="M219.3 100.278C219.3 100.278 225.6 95.5785 223 85.9785C223 85.9785 220.9 89.5785 219 89.9785C219 89.9785 223.8 76.8785 209 69.5785C209 69.5785 210.7 76.7785 209 79.1785C209 79.1785 205.1 70.8785 199.3 69.0785C199.3 69.0785 200.2 83.6785 191.1 86.6785C184.6 88.7785 176.3 96.2785 174 108.678C174 108.678 170.2 107.578 168.8 109.078C168.8 109.078 173.6 109.878 174.3 112.978C174.3 112.978 172.3 111.978 170.8 113.278C170.8 113.278 174.2 113.978 174.7 116.678C175.2 119.378 188.1 139.678 195.9 143.078C203.6 146.378 219.3 100.278 219.3 100.278Z" fill="#2C2A40"/>
<path d="M199.2 146.078L200.2 152.078C200.5 153.578 201.6 154.878 203.1 155.178C215.9 158.478 221.6 150.579 222.2 147.479C220.5 146.779 191.1 134.878 186.3 123.578C186.4 123.578 189.5 138.778 199.2 146.078Z" fill="#F9B587"/>
<path d="M223 112.779C224.1 114.279 224.9 115.879 225.4 117.579C225.8 119.079 226.1 120.579 226.1 122.179V132.579C226.1 136.479 223.7 139.879 220 141.179C215.8 142.579 209.9 143.879 203.9 142.479C192.5 139.979 187 126.179 187 126.179C187 126.179 182.3 111.879 191.8 101.979C198.4 95.1786 207.3 93.7786 212.1 93.5786C214.2 93.4786 216.1 94.5785 217.1 96.3785L220.8 102.879C221.1 103.379 221.4 103.879 221.6 104.479C222.4 106.279 222.8 108.279 222.9 110.279L223 112.779Z" fill="#F9B587"/>
<path d="M209.5 106.179C209.5 106.179 200.5 102.379 198.2 109.879L199.6 111.079C199.6 111.079 202.6 105.379 209.8 108.179L209.5 106.179Z" fill="#2C2A40"/>
<path d="M223 112.779C224.1 114.279 224.9 115.879 225.4 117.579C223.6 117.179 220.5 117.379 215.1 120.379C215.1 120.379 217.2 116.679 220.2 115.479C221 115.179 221.3 114.079 220.7 113.479L217 108.979C217 108.979 217.2 107.679 218.3 106.779C219 106.279 220.4 105.379 221.7 104.679C222.5 106.479 222.9 108.479 223 110.479V112.779Z" fill="#F39568"/>
<path d="M220.8 103.279C218.6 104.279 217.1 105.579 217.1 105.579L217.6 107.379C219 106.279 220.3 105.479 221.5 105.079C222.1 104.879 222.4 104.179 222.2 103.679C221.9 103.179 221.3 102.979 220.8 103.279Z" fill="#2C2A40"/>
<path d="M223.6 121.879L207.5 126.479C207.5 126.479 212.6 134.179 220.8 130.679C227.2 128.079 223.6 121.879 223.6 121.879Z" fill="white"/>
<path d="M219 141.378C219 141.378 208.9 143.978 198.4 132.578C198.4 132.578 197.9 138.479 203.5 144.479C209.1 150.479 222.2 147.479 222.2 147.479L219 141.378Z" fill="#F39568"/>
<path d="M190.2 122.479C190.2 122.479 185.1 118.079 181.8 122.179C178.5 126.379 185.9 138.179 191.2 133.379C196.4 128.579 190.2 122.479 190.2 122.479Z" fill="#F9B587"/>
<path d="M209.5 111.779C209.5 111.779 207.5 109.379 205 110.279C201.4 111.679 201.9 114.979 201.9 114.979C201.9 114.979 203.5 108.879 209.5 111.779Z" fill="#2C2A40"/>
<path d="M218.4 110.579C218.4 110.579 219.7 106.679 222.6 109.679C222.6 109.679 220.1 107.979 218.4 110.579Z" fill="#2C2A40"/>
<path d="M188.2 106.379C188.2 106.379 192.1 111.079 188.9 116.079L192.2 123.679L188.8 124.579L186 120.379L183.8 109.479C183.8 109.479 186.4 104.479 188.2 106.379Z" fill="#2C2A40"/>
<path d="M271.1 113.879C271.1 113.879 270.7 115.979 269.8 119.279C267 129.879 259.6 153.079 246.1 160.679C246.1 160.679 243 159.579 239.4 157.279C233.7 153.679 226.6 147.279 227.3 137.579C227.3 137.579 238.9 118.379 243.8 104.879C244.3 103.679 244.6 102.479 245 101.379L266.5 111.679L271.1 113.879Z" fill="#8695F0"/>
<path d="M271.1 113.879C271.1 113.879 270.7 115.979 269.8 119.279C264.8 115.379 248.7 107.379 243.7 104.879C244.2 103.679 244.5 102.479 244.9 101.379L266.4 111.679L271.1 113.879Z" fill="#2C2A40"/>
<path opacity="0.2" d="M271.2 113.879C271.2 113.879 265.1 144.379 250.7 157.379C249.3 154.779 247.8 152.379 246.4 150.379C257.3 137.379 264.1 118.979 266.4 111.679L271.2 113.879Z" fill="#2C2A40"/>
<path d="M190 176.178C189.6 178.678 189.1 180.478 189.1 180.478L187.8 195.078L186.4 209.078L186 213.178C183.6 216.578 175.3 216.878 167.5 216.378C159.3 215.778 151.6 214.178 151.6 214.178C151.6 214.178 151.8 212.578 152.3 209.878C153.4 203.378 156 190.278 161 176.878C164.5 167.478 169.4 162.278 173.5 159.478C177.2 156.978 180.2 156.278 180.9 156.178C181 156.178 181 156.178 181 156.178C191.6 156.978 191.1 169.378 190 176.178Z" fill="#8695F0"/>
<path d="M186.4 208.979L186 213.079C183.6 216.479 175.3 216.779 167.5 216.279C159.3 215.679 151.6 214.079 151.6 214.079C151.6 214.079 151.8 212.479 152.3 209.779C155.7 210.679 163.9 211.879 171.1 211.979C179.2 211.979 183.9 210.079 186.4 208.979Z" fill="#2C2A40"/>
<path d="M219.1 141.578C219.1 141.578 235.9 138.979 246.5 148.479C257.2 157.979 267.7 177.879 261.3 189.779L263.9 207.078C263.9 207.078 281.4 179.479 262.6 152.779C249.9 134.779 233.7 134.378 225.6 135.578C224.7 138.178 222.7 140.079 220 140.979L219.1 141.578Z" fill="#2C2A40"/>
<path d="M178.7 156.579C178.7 156.579 183.5 145.579 192.5 146.879C201.5 148.179 228.3 184.579 222.6 211.379C216.9 238.179 193.8 240.979 193.8 240.979C193.8 240.979 189.3 234.179 194.4 227.879C194.4 227.879 209.6 224.179 213.7 206.679C217.8 189.279 197.1 153.879 189.5 152.779C186.8 152.379 184.7 155.279 184.7 155.279C184.7 155.279 181.3 156.179 178.7 156.579Z" fill="#2C2A40"/>
<path opacity="0.2" d="M275.3 271.079C275.3 271.079 229.4 285.979 204.6 279.279C202.8 278.779 187.7 275.779 187.7 275.779C187.7 275.779 196.2 243.479 193.8 222.079C193.2 216.379 191.8 205.179 187.8 194.979L185.9 213.079C183.5 216.479 175.2 216.779 167.4 216.279C167.4 216.279 179.9 209.679 181.2 194.679C181.6 190.379 182.4 186.879 183.4 184.079C185.8 177.279 189.1 174.879 189.1 174.879C189.1 174.879 189.4 175.379 189.9 176.279C192.3 180.479 199.4 193.279 200.2 203.579C201.2 216.079 205.2 242.779 224.5 258.479C235.2 267.279 271.1 265.879 271.7 254.379C271.7 254.279 271.7 254.179 271.7 254.079C273.8 264.179 275.3 271.079 275.3 271.079Z" fill="#2C2A40"/>
</svg>
