<svg width="1162" height="865" viewBox="0 0 1162 865" fill="none" xmlns="http://www.w3.org/2000/svg">
<path d="M1161.07 760.271H0V760.736H1161.07V760.271Z" fill="#EBEBEB"/>
<path d="M1044.73 797.658H967.871V798.122H1044.73V797.658Z" fill="#EBEBEB"/>
<path d="M769.095 803.927H748.893V804.392H769.095V803.927Z" fill="#EBEBEB"/>
<path d="M965.549 776.062H920.964V776.526H965.549V776.062Z" fill="#EBEBEB"/>
<path d="M222.23 780.009H121.913V780.474H222.23V780.009Z" fill="#EBEBEB"/>
<path d="M257.526 780.009H242.897V780.474H257.526V780.009Z" fill="#EBEBEB"/>
<path d="M522.948 789.762H305.362V790.227H522.948V789.762Z" fill="#EBEBEB"/>
<path d="M550.349 656.703H101.942C94.7436 656.703 88.706 650.666 88.706 643.467V13.2362C88.706 6.03759 94.7436 0 101.942 0H550.349C557.548 0 563.585 6.03759 563.585 13.2362V643.467C563.585 650.666 557.78 656.703 550.349 656.703ZM101.942 0.464431C94.9758 0.464431 89.1705 6.03759 89.1705 13.2362V643.467C89.1705 650.433 94.7436 656.239 101.942 656.239H550.349C557.315 656.239 563.121 650.666 563.121 643.467V13.2362C563.121 6.2698 557.548 0.464431 550.349 0.464431H101.942Z" fill="#EBEBEB"/>
<path d="M1052.63 656.703H604.223C597.024 656.703 590.987 650.666 590.987 643.467V13.2362C590.987 6.03759 597.024 0 604.223 0H1052.63C1059.83 0 1065.87 6.03759 1065.87 13.2362V643.467C1065.87 650.666 1060.06 656.703 1052.63 656.703ZM604.223 0.464431C597.256 0.464431 591.451 6.03759 591.451 13.2362V643.467C591.451 650.433 597.024 656.239 604.223 656.239H1052.63C1059.6 656.239 1065.4 650.666 1065.4 643.467V13.2362C1065.4 6.2698 1059.83 0.464431 1052.63 0.464431H604.223Z" fill="#EBEBEB"/>
<path d="M407.769 253.811H228.732V618.388H407.769V253.811Z" fill="#EBEBEB"/>
<path d="M401.033 610.877L401.033 261.394L235.464 261.394L235.464 610.877H401.033Z" fill="#E0E0E0"/>
<path d="M319.992 259.616H316.276V614.672H319.992V259.616Z" fill="#EBEBEB"/>
<path d="M411.949 248.702H224.784V267.744H411.949V248.702Z" fill="#EBEBEB"/>
<path d="M411.949 269.834H224.784V272.156H411.949V269.834Z" fill="#EBEBEB"/>
<path d="M411.949 274.942H224.784V277.264H411.949V274.942Z" fill="#EBEBEB"/>
<path d="M411.949 280.051H224.784V282.373H411.949V280.051Z" fill="#EBEBEB"/>
<path d="M411.949 285.16H224.784V287.482H411.949V285.16Z" fill="#EBEBEB"/>
<path d="M411.949 290.268H224.784V292.591H411.949V290.268Z" fill="#EBEBEB"/>
<path d="M411.949 295.377H224.784V297.699H411.949V295.377Z" fill="#EBEBEB"/>
<path d="M411.949 300.486H224.784V302.808H411.949V300.486Z" fill="#EBEBEB"/>
<path d="M411.949 305.595H224.784V307.917H411.949V305.595Z" fill="#EBEBEB"/>
<path d="M411.949 310.703H224.784V313.026H411.949V310.703Z" fill="#EBEBEB"/>
<path d="M411.949 315.58H224.784V317.902H411.949V315.58Z" fill="#EBEBEB"/>
<path d="M411.949 320.689H224.784V323.011H411.949V320.689Z" fill="#EBEBEB"/>
<path d="M411.949 325.797H224.784V328.119H411.949V325.797Z" fill="#EBEBEB"/>
<path d="M411.949 330.906H224.784V333.228H411.949V330.906Z" fill="#EBEBEB"/>
<path d="M411.949 336.015H224.784V338.337H411.949V336.015Z" fill="#EBEBEB"/>
<path d="M411.949 341.124H224.784V343.446H411.949V341.124Z" fill="#EBEBEB"/>
<path d="M411.949 346.232H224.784V348.554H411.949V346.232Z" fill="#EBEBEB"/>
<path d="M411.949 351.341H224.784V353.663H411.949V351.341Z" fill="#EBEBEB"/>
<path d="M411.949 356.45H224.784V358.772H411.949V356.45Z" fill="#EBEBEB"/>
<path d="M619.781 253.811H440.744V618.388H619.781V253.811Z" fill="#EBEBEB"/>
<path d="M612.923 610.999L612.923 261.516L447.354 261.516L447.354 610.999H612.923Z" fill="#E0E0E0"/>
<path d="M532.004 259.616H528.289V614.672H532.004V259.616Z" fill="#EBEBEB"/>
<path d="M623.729 248.702H436.564V267.744H623.729V248.702Z" fill="#EBEBEB"/>
<path d="M623.729 269.834H436.564V272.156H623.729V269.834Z" fill="#EBEBEB"/>
<path d="M623.729 274.942H436.564V277.264H623.729V274.942Z" fill="#EBEBEB"/>
<path d="M623.729 280.051H436.564V282.373H623.729V280.051Z" fill="#EBEBEB"/>
<path d="M623.729 285.16H436.564V287.482H623.729V285.16Z" fill="#EBEBEB"/>
<path d="M623.729 290.268H436.564V292.591H623.729V290.268Z" fill="#EBEBEB"/>
<path d="M623.729 295.377H436.564V297.699H623.729V295.377Z" fill="#EBEBEB"/>
<path d="M623.729 300.486H436.564V302.808H623.729V300.486Z" fill="#EBEBEB"/>
<path d="M623.729 305.595H436.564V307.917H623.729V305.595Z" fill="#EBEBEB"/>
<path d="M623.729 310.703H436.564V313.026H623.729V310.703Z" fill="#EBEBEB"/>
<path d="M623.729 315.58H436.564V317.902H623.729V315.58Z" fill="#EBEBEB"/>
<path d="M623.729 320.689H436.564V323.011H623.729V320.689Z" fill="#EBEBEB"/>
<path d="M623.729 325.797H436.564V328.119H623.729V325.797Z" fill="#EBEBEB"/>
<path d="M623.729 330.906H436.564V333.228H623.729V330.906Z" fill="#EBEBEB"/>
<path d="M623.729 336.015H436.564V338.337H623.729V336.015Z" fill="#EBEBEB"/>
<path d="M623.729 341.124H436.564V343.446H623.729V341.124Z" fill="#EBEBEB"/>
<path d="M623.729 346.232H436.564V348.554H623.729V346.232Z" fill="#EBEBEB"/>
<path d="M623.729 351.341H436.564V353.663H623.729V351.341Z" fill="#EBEBEB"/>
<path d="M623.729 356.45H436.564V358.772H623.729V356.45Z" fill="#EBEBEB"/>
<path d="M638.591 704.772H458.16V686.427C458.16 681.086 462.572 676.674 467.913 676.674H628.837C634.178 676.674 638.591 681.086 638.591 686.427V704.772Z" fill="#E0E0E0"/>
<path opacity="0.6" d="M524.109 704.772H458.16V686.427C458.16 681.086 462.572 676.674 467.913 676.674H514.356C519.697 676.674 524.109 681.086 524.109 686.427V704.772V704.772Z" fill="#F0F0F0"/>
<path d="M581.93 835.277H576.357L572.874 703.378H581.93V835.277Z" fill="#E0E0E0"/>
<path d="M463.036 835.277H457.695V703.378H466.752L463.036 835.277Z" fill="#E0E0E0"/>
<path d="M518.071 835.277H512.498V703.378H521.554L518.071 835.277Z" fill="#E0E0E0"/>
<path d="M636.733 835.277H631.392L627.676 703.378H636.733V835.277Z" fill="#E0E0E0"/>
<path d="M455.838 717.776H643.003C644.396 717.776 645.557 716.615 645.557 715.221V705.701C645.557 704.307 644.396 703.146 643.003 703.146H455.838C454.444 703.146 453.283 704.307 453.283 705.701V715.221C453.283 716.615 454.444 717.776 455.838 717.776Z" fill="#EBEBEB"/>
<path d="M438.654 704.772H258.223V686.427C258.223 681.086 262.635 676.674 267.976 676.674H428.901C434.242 676.674 438.654 681.086 438.654 686.427V704.772V704.772Z" fill="#E0E0E0"/>
<path opacity="0.6" d="M324.172 704.772H258.223V686.427C258.223 681.086 262.635 676.674 267.976 676.674H314.419C319.76 676.674 324.172 681.086 324.172 686.427V704.772V704.772Z" fill="#F0F0F0"/>
<path d="M382.225 835.277H376.652L373.169 703.378H382.225V835.277Z" fill="#E0E0E0"/>
<path d="M263.331 835.277H257.991V703.378H266.815L263.331 835.277Z" fill="#E0E0E0"/>
<path d="M318.134 835.277H312.793V703.378H321.85L318.134 835.277Z" fill="#E0E0E0"/>
<path d="M437.028 835.277H431.687L427.972 703.378H437.028V835.277Z" fill="#E0E0E0"/>
<path d="M256.133 717.776H443.298C444.691 717.776 445.852 716.615 445.852 715.221V705.701C445.852 704.307 444.691 703.146 443.298 703.146H256.133C254.74 703.146 253.578 704.307 253.578 705.701V715.221C253.578 716.615 254.74 717.776 256.133 717.776Z" fill="#EBEBEB"/>
<path d="M580.537 865C829.211 865 1030.8 853.252 1030.8 838.76C1030.8 824.268 829.211 812.519 580.537 812.519C331.863 812.519 130.272 824.268 130.272 838.76C130.272 853.252 331.863 865 580.537 865Z" fill="#F5F5F5"/>
<path d="M870.577 151.706C875.823 129.49 862.065 107.227 839.849 101.981C817.632 96.7355 795.37 110.493 790.124 132.709C784.878 154.926 798.635 177.188 820.852 182.434C843.068 187.68 865.331 173.923 870.577 151.706Z" fill="#687BEC"/>
<path opacity="0.4" d="M864.963 147.762C868.066 128.647 855.084 110.635 835.968 107.533C816.853 104.43 798.841 117.412 795.739 136.528C792.637 155.643 805.618 173.655 824.734 176.757C843.85 179.859 861.861 166.878 864.963 147.762Z" fill="white"/>
<path d="M828.542 144.902C828.078 144.902 827.846 144.902 827.381 144.67L811.126 135.381C809.965 134.685 809.733 133.291 810.197 132.13C810.894 130.969 812.287 130.505 813.448 131.201L826.22 138.4V117.733C826.22 116.34 827.149 115.411 828.542 115.411C829.936 115.411 830.864 116.34 830.864 117.733V142.348C830.864 143.277 830.4 143.973 829.703 144.438C829.471 144.67 829.007 144.902 828.542 144.902Z" fill="#687BEC"/>
<path opacity="0.4" d="M870.577 151.706C875.823 129.49 862.065 107.227 839.849 101.981C817.632 96.7355 795.37 110.493 790.124 132.709C784.878 154.926 798.635 177.188 820.852 182.434C843.068 187.68 865.331 173.923 870.577 151.706Z" fill="white"/>
<path d="M222.694 769.56C222.694 769.56 226.177 743.319 242.897 740.533C259.616 737.746 254.507 724.974 258.919 720.098C263.332 715.221 274.71 729.619 264.957 743.552C255.204 757.485 263.099 753.072 258.919 766.076C254.74 779.313 221.068 791.156 222.694 769.56Z" fill="#263238"/>
<path opacity="0.2" d="M222.694 769.56C222.694 769.56 226.177 743.319 242.897 740.533C259.616 737.746 254.507 724.974 258.919 720.098C263.332 715.221 274.71 729.619 264.957 743.552C255.204 757.485 263.099 753.072 258.919 766.076C254.74 779.313 221.068 791.156 222.694 769.56Z" fill="white"/>
<path d="M228.267 786.279C228.267 786.279 238.949 758.646 228.731 715.918C218.514 672.958 192.042 658.329 210.154 608.867C228.267 559.405 250.56 523.412 235.233 490.438" stroke="#263238" stroke-miterlimit="10" stroke-linecap="round" stroke-linejoin="round"/>
<path d="M232.911 781.403C232.911 781.403 243.825 765.148 228.035 756.788C212.476 748.428 209.225 755.162 199.705 749.125C189.952 743.087 182.753 728.458 181.128 737.746C179.502 747.035 190.648 752.376 186.701 756.788C182.753 760.968 212.941 788.601 232.911 781.403Z" fill="#263238"/>
<path d="M240.807 503.442C240.807 503.442 248.702 470.699 224.784 471.86C200.866 473.254 229.66 500.887 240.807 503.442Z" fill="#263238"/>
<path d="M221.997 529.682C221.997 529.682 212.476 501.119 195.989 508.782C179.734 516.213 205.278 531.54 221.997 529.682Z" fill="#263238"/>
<path d="M251.024 529.914C251.024 529.914 246.612 506.925 264.493 505.067C282.605 502.977 276.103 524.109 251.024 529.914Z" fill="#263238"/>
<path d="M242.897 578.215C242.897 578.215 265.421 554.761 275.407 570.087C285.16 585.181 258.687 590.754 242.897 578.215Z" fill="#263238"/>
<path d="M199.705 577.75C199.705 577.75 192.274 542.454 173.697 555.226C155.119 567.765 182.985 582.627 199.705 577.75Z" fill="#263238"/>
<path d="M186.701 630.231C186.701 630.231 198.311 592.844 171.839 599.114C145.366 605.384 167.195 623.032 186.701 630.231Z" fill="#263238"/>
<path d="M228.964 639.984C228.964 639.984 249.399 611.421 267.511 618.62C285.16 625.587 273.317 653.22 228.964 639.984Z" fill="#263238"/>
<path d="M213.173 700.592C213.173 700.592 190.416 659.258 174.393 675.048C158.37 690.839 188.326 710.113 213.173 700.592Z" fill="#263238"/>
<path d="M240.807 695.715C240.807 695.715 233.144 662.973 252.417 664.134C271.691 665.295 268.208 685.962 240.807 695.715Z" fill="#263238"/>
<g opacity="0.2">
<path opacity="0.2" d="M240.807 503.442C240.807 503.442 248.702 470.699 224.784 471.86C200.866 473.254 229.66 500.887 240.807 503.442Z" fill="white"/>
<path opacity="0.2" d="M221.997 529.682C221.997 529.682 212.476 501.119 195.989 508.782C179.734 516.213 205.278 531.54 221.997 529.682Z" fill="white"/>
<path opacity="0.2" d="M251.024 529.914C251.024 529.914 246.612 506.925 264.493 505.067C282.605 502.977 276.103 524.109 251.024 529.914Z" fill="white"/>
<path opacity="0.2" d="M242.897 578.215C242.897 578.215 265.421 554.761 275.407 570.087C285.16 585.181 258.687 590.754 242.897 578.215Z" fill="white"/>
<path opacity="0.2" d="M199.705 577.75C199.705 577.75 192.274 542.454 173.697 555.226C155.119 567.765 182.985 582.627 199.705 577.75Z" fill="white"/>
<path opacity="0.2" d="M186.701 630.231C186.701 630.231 198.311 592.844 171.839 599.114C145.366 605.384 167.195 623.032 186.701 630.231Z" fill="white"/>
<path opacity="0.2" d="M228.964 639.984C228.964 639.984 249.399 611.421 267.511 618.62C285.16 625.587 273.317 653.22 228.964 639.984Z" fill="white"/>
<path opacity="0.2" d="M213.173 700.592C213.173 700.592 190.416 659.258 174.393 675.048C158.37 690.839 188.326 710.113 213.173 700.592Z" fill="white"/>
<path opacity="0.2" d="M240.807 695.715C240.807 695.715 233.144 662.973 252.417 664.134C271.691 665.295 268.208 685.962 240.807 695.715Z" fill="white"/>
</g>
<path d="M256.365 521.787C256.365 521.787 247.309 537.809 233.84 546.866C233.84 546.866 223.158 529.682 215.495 525.966" stroke="#263238" stroke-miterlimit="10" stroke-linecap="round" stroke-linejoin="round"/>
<path d="M261.242 574.499C261.242 574.499 235.001 575.66 215.495 593.076C215.495 593.076 202.491 574.499 186.701 566.836" stroke="#263238" stroke-miterlimit="10" stroke-linecap="round" stroke-linejoin="round"/>
<path d="M177.412 613.744C177.412 613.744 191.113 642.306 206.207 652.756C206.207 652.756 234.537 633.25 256.365 630.927" stroke="#263238" stroke-miterlimit="10" stroke-linecap="round" stroke-linejoin="round"/>
<path d="M251.024 675.048C251.024 675.048 238.717 704.772 228.267 711.97C228.267 711.97 216.889 698.27 194.132 693.393" stroke="#263238" stroke-miterlimit="10" stroke-linecap="round" stroke-linejoin="round"/>
<path d="M231.286 777.455C231.286 777.455 240.574 762.593 251.024 760.503C261.474 758.413 266.118 746.338 269.834 753.537C273.781 760.968 263.099 784.886 231.286 777.455Z" fill="#263238"/>
<path d="M279.587 835.276H178.109L171.375 772.811H286.321L279.587 835.276Z" fill="#687BEC"/>
<path d="M288.643 784.654H169.052L167.427 771.417H290.268L288.643 784.654Z" fill="#687BEC"/>
<path opacity="0.3" d="M288.643 784.654H169.052L167.427 771.417H290.268L288.643 784.654Z" fill="white"/>
<path d="M967.639 231.286H687.356V835.276H967.639V231.286Z" fill="#687BEC"/>
<path opacity="0.2" d="M958.815 231.286H687.356V835.276H958.815V231.286Z" fill="white"/>
<path d="M781.403 265.189H722.652V494.385H781.403V265.189Z" fill="#687BEC"/>
<path opacity="0.7" d="M775.83 265.189H722.652V494.385H775.83V265.189Z" fill="white"/>
<path d="M742.855 558.709C742.855 564.282 738.211 568.926 732.638 568.926C727.064 568.926 722.42 564.282 722.42 558.709C722.42 553.135 727.064 548.491 732.638 548.491C738.443 548.491 742.855 552.903 742.855 558.709Z" fill="#687BEC"/>
<path d="M742.855 568.926C748.498 568.926 753.072 564.352 753.072 558.709C753.072 553.066 748.498 548.491 742.855 548.491C737.212 548.491 732.638 553.066 732.638 558.709C732.638 564.352 737.212 568.926 742.855 568.926Z" fill="#263238"/>
<path opacity="0.8" d="M742.855 568.926C748.498 568.926 753.072 564.352 753.072 558.709C753.072 553.066 748.498 548.491 742.855 548.491C737.212 548.491 732.638 553.066 732.638 558.709C732.638 564.352 737.212 568.926 742.855 568.926Z" fill="white"/>
<path d="M596.792 423.56C590.987 420.773 584.02 417.058 575.66 411.485L573.57 393.14L571.713 375.956C585.181 379.207 615.369 402.66 620.246 413.11C623.961 420.773 624.425 436.332 596.792 423.56Z" fill="#687BEC"/>
<path d="M508.318 835.973H489.044C488.348 835.973 487.883 836.438 487.651 837.134L484.632 851.299C484.4 852.46 485.097 853.854 486.49 854.086C486.722 854.086 486.722 854.086 486.954 854.086C493.224 854.086 497.636 853.621 505.531 853.621C510.408 853.621 524.805 854.086 531.54 854.086C538.274 854.086 538.97 847.584 536.416 846.887C524.341 844.333 515.052 840.617 511.105 837.134C510.408 836.205 509.479 835.973 508.318 835.973Z" fill="#263238"/>
<path d="M589.825 835.509H570.552C569.855 835.509 569.391 835.973 569.158 836.67L566.14 850.835C565.907 851.996 566.604 853.389 567.997 853.622C568.23 853.622 568.23 853.622 568.462 853.622C574.732 853.622 579.144 853.157 587.039 853.157C591.915 853.157 606.313 853.622 613.047 853.622C619.781 853.622 620.478 847.12 617.923 846.423C605.848 843.869 596.56 840.153 592.612 836.67C591.683 835.741 590.754 835.509 589.825 835.509Z" fill="#263238"/>
<path d="M498.101 479.988H581.93C589.825 523.644 612.35 699.663 594.238 837.134L565.907 838.063C565.907 838.063 571.248 629.302 546.169 561.96C543.382 597.953 539.899 636.501 536.88 656.936C529.682 707.326 513.427 838.063 513.427 838.063H484.4C484.4 838.063 490.902 711.738 493.456 662.509C496.707 608.635 498.101 490.902 498.101 479.988Z" fill="#263238"/>
<path opacity="0.2" d="M484.632 837.831H513.659C513.659 837.831 529.682 706.862 537.113 656.703C540.132 636.268 543.615 597.953 546.401 561.728C550.117 571.713 553.136 584.02 555.69 597.953C570.784 678.764 566.14 837.831 566.14 837.831L594.47 837.366C612.35 699.895 590.058 523.18 582.162 480.917H498.333C498.101 490.902 496.94 609.099 493.921 662.741C491.134 712.203 484.632 837.831 484.632 837.831Z" fill="white"/>
<path opacity="0.2" d="M546.401 561.728C550.117 571.713 553.135 584.02 555.69 597.953C558.012 565.907 548.723 531.772 548.723 531.772L546.401 561.728Z" fill="black"/>
<path d="M582.162 480.917H498.333C498.333 480.917 498.333 457.928 494.385 430.758C492.992 421.702 491.366 412.181 489.044 402.893C487.419 395.926 485.329 388.96 482.774 382.458C482.774 382.458 519.929 367.364 571.713 375.956C571.713 376.188 581.233 420.309 582.162 480.917Z" fill="#687BEC"/>
<path d="M523.412 490.205L575.893 490.438L574.964 479.988L523.412 480.685V490.205Z" fill="black"/>
<path d="M578.447 490.438H584.02L582.162 479.988H577.75L578.447 490.438Z" fill="black"/>
<path d="M520.858 480.685L498.333 480.917V490.205H520.858V480.685Z" fill="black"/>
<path d="M559.173 479.291C558.476 478.595 544.079 478.827 542.918 480.22C542.918 480.22 542.454 489.973 543.15 490.902C543.847 491.831 557.78 490.438 558.941 490.438C560.102 490.438 559.638 479.988 559.173 479.291ZM557.548 489.509C556.387 489.509 545.008 490.438 544.544 489.741C544.079 489.044 544.544 480.917 544.544 480.917C545.472 479.756 557.315 479.756 557.78 480.22C558.244 480.917 558.476 489.509 557.548 489.509Z" fill="white"/>
<path d="M556.619 483.239H553.832C553.368 483.239 552.903 483.703 552.903 484.168C552.903 484.864 553.368 485.329 554.064 485.329H556.851C557.548 485.329 558.012 484.864 557.78 484.168C557.548 483.703 557.083 483.239 556.619 483.239Z" fill="white"/>
<path opacity="0.2" d="M494.385 430.758C492.992 421.702 491.366 412.181 489.044 402.893C489.973 402.196 491.134 401.499 492.527 401.035C492.527 401.035 500.655 417.754 494.385 430.758Z" fill="black"/>
<path d="M482.774 382.458C465.591 390.585 442.369 440.511 447.013 457.463C451.89 474.415 493.689 498.797 493.689 498.797L480.452 511.569C480.452 511.569 491.134 520.626 495.778 519.464C500.655 518.303 505.996 506.693 505.764 500.887C505.299 495.082 498.101 490.205 498.101 490.205C498.101 490.205 468.377 458.392 467.68 450.961C466.287 433.313 489.276 404.518 489.276 404.518L482.774 382.458Z" fill="#F1C3B4"/>
<path d="M482.774 382.458C473.021 384.315 443.762 422.863 446.549 454.444L470.003 451.193C470.003 451.193 476.969 427.507 491.366 413.11C491.366 413.11 494.617 404.518 490.438 390.353C488.812 385.012 482.774 382.458 482.774 382.458Z" fill="#687BEC"/>
<path d="M444.923 453.283L471.628 449.8V453.283L444.923 459.553V453.283Z" fill="#687BEC"/>
<path opacity="0.2" d="M444.923 453.283L471.628 449.8V453.283L444.923 459.553V453.283Z" fill="white"/>
<path opacity="0.2" d="M596.792 423.56C590.987 420.773 584.02 417.058 575.66 411.485L573.57 393.14C578.447 395.926 596.327 406.84 596.792 423.56Z" fill="black"/>
<path d="M604.223 405.679C604.223 405.679 572.177 401.732 566.372 402.893C560.566 403.822 548.027 414.968 547.562 415.432C547.098 415.897 556.387 427.74 558.476 427.275C560.566 426.811 570.784 416.361 571.016 415.432C571.248 414.503 571.945 412.878 571.945 412.878L602.365 422.631C602.133 422.167 608.867 412.181 604.223 405.679Z" fill="#F1C3B4"/>
<path d="M568.694 402.66C568.694 402.66 571.945 407.769 571.713 413.11H574.964C574.964 413.11 577.75 408.001 575.66 402.893L568.694 402.66Z" fill="#687BEC"/>
<path opacity="0.2" d="M568.694 402.66C568.694 402.66 571.945 407.769 571.713 413.11H574.964C574.964 413.11 577.75 408.001 575.66 402.893L568.694 402.66Z" fill="black"/>
<path d="M576.821 403.821C576.821 404.983 574.732 405.911 572.409 405.679C570.087 405.447 568.229 404.286 568.229 403.125C568.229 401.964 570.319 401.035 572.642 401.267C574.964 401.499 576.821 402.66 576.821 403.821Z" fill="#263238"/>
<path d="M575.66 402.893C575.66 403.821 574.035 404.286 572.409 404.286C570.784 404.054 569.391 403.357 569.391 402.428C569.391 401.499 571.016 401.035 572.642 401.035C574.499 401.267 575.66 401.964 575.66 402.893Z" fill="#687BEC"/>
<path opacity="0.7" d="M575.66 402.893C575.66 403.821 574.035 404.286 572.409 404.286C570.784 404.054 569.391 403.357 569.391 402.428C569.391 401.499 571.016 401.035 572.642 401.035C574.499 401.267 575.66 401.964 575.66 402.893Z" fill="white"/>
<path d="M601.204 423.56L605.152 403.589L608.403 404.983L607.242 425.882L601.204 423.56Z" fill="#687BEC"/>
<path opacity="0.2" d="M601.204 423.56L605.152 403.589L608.403 404.983L607.242 425.882L601.204 423.56Z" fill="white"/>
<path d="M502.048 382.458C502.048 382.458 505.532 373.634 522.251 370.615C538.97 367.596 557.315 375.491 561.728 381.064L547.33 382.458L540.132 398.248L523.644 384.083L502.048 382.458Z" fill="#687BEC"/>
<path opacity="0.2" d="M502.048 382.458C502.048 382.458 505.532 373.634 522.251 370.615C538.97 367.596 557.315 375.491 561.728 381.064L547.33 382.458L540.132 398.248L523.644 384.083L502.048 382.458Z" fill="white"/>
<path d="M511.105 377.581C514.356 380.6 519.464 381.761 524.341 382.226L539.435 395.926L543.847 380.6C543.847 380.6 549.652 378.51 547.098 374.795C540.132 373.634 536.881 370.383 535.487 366.203C534.791 363.881 534.558 361.094 534.791 358.307C534.791 356.914 535.023 355.289 535.487 353.895L512.266 336.711C514.82 348.554 518.536 369.454 511.105 377.581Z" fill="#F1C3B4"/>
<path opacity="0.2" d="M517.142 348.09C518.071 362.023 529.682 365.971 535.255 366.667C534.558 364.345 534.326 361.558 534.558 358.772L517.142 348.09Z" fill="black"/>
<path d="M558.012 307.685C558.012 307.685 560.799 325.565 549.188 333.925C537.577 342.285 537.577 301.647 537.577 301.647L558.012 307.685Z" fill="#263238"/>
<path d="M515.517 351.341C521.09 359.469 530.378 361.558 538.274 359.004C543.383 357.379 548.027 353.895 550.813 348.787C551.278 348.09 551.51 347.393 551.974 346.697C557.78 333.46 559.405 310.007 545.472 301.415C535.487 295.145 522.251 298.164 515.981 308.149C514.123 310.936 513.195 314.187 512.73 317.67C510.872 332.996 509.015 342.052 515.517 351.341Z" fill="#F1C3B4"/>
<path d="M535.255 325.797C535.023 326.958 535.487 328.119 536.416 328.352C537.345 328.584 538.041 327.655 538.274 326.262C538.506 325.101 538.041 323.94 537.113 323.707C536.416 323.475 535.487 324.404 535.255 325.797Z" fill="#263238"/>
<path d="M549.42 328.119C549.188 329.281 549.652 330.442 550.581 330.674C551.51 330.906 552.207 329.977 552.439 328.584C552.671 327.423 552.207 326.262 551.278 326.03C550.581 326.03 549.652 326.958 549.42 328.119Z" fill="#263238"/>
<path d="M544.776 328.12C545.705 332.299 547.098 336.247 548.956 339.962C547.098 340.891 544.776 340.891 542.686 339.962L544.776 328.12Z" fill="#E4A59A"/>
<path d="M531.772 320.456C532.004 320.456 532.236 320.456 532.468 320.224C533.862 318.831 535.719 318.366 537.577 318.599C538.042 318.599 538.274 318.366 538.506 318.134C538.506 317.67 538.274 317.438 538.042 317.205C535.719 316.741 533.165 317.438 531.54 319.295C531.307 319.528 531.307 319.992 531.54 320.456C531.54 320.224 531.54 320.224 531.772 320.456Z" fill="#263238"/>
<path d="M530.843 340.195C534.558 340.427 538.042 342.517 539.899 345.536C539.899 345.768 539.899 346 539.667 346C539.435 346 539.203 346 539.203 345.768C537.345 342.749 534.094 340.891 530.611 340.659C530.378 340.659 530.146 340.427 530.146 340.195C530.378 340.427 530.611 340.195 530.843 340.195Z" fill="#263238"/>
<path d="M556.386 324.404C556.619 324.404 556.619 324.404 556.851 324.404C557.315 324.404 557.548 323.94 557.315 323.475C556.619 321.153 554.993 319.295 552.671 318.366C552.207 318.134 551.974 318.366 551.742 318.831C551.742 319.295 551.742 319.528 552.207 319.76C554.064 320.456 555.225 322.082 555.69 323.707C556.154 324.172 556.154 324.172 556.386 324.404Z" fill="#263238"/>
<path d="M535.719 292.358C533.862 292.126 532.004 291.894 530.146 291.894C524.805 291.662 519.232 292.358 514.588 294.913C503.906 301.183 505.764 317.67 507.157 328.12C509.015 342.285 514.588 348.554 514.588 348.554C511.337 341.82 512.266 328.816 514.356 328.352C516.446 328.12 516.446 330.442 516.446 330.442C521.322 327.423 525.734 318.831 524.109 312.793C522.948 308.149 528.056 304.666 532.468 306.988C532.933 307.22 533.397 307.452 533.862 307.685C534.558 307.917 535.255 308.381 535.952 308.613V292.358H535.719Z" fill="#263238"/>
<path d="M503.674 328.816C504.835 332.532 507.389 335.783 510.872 337.64C515.517 340.195 519 336.247 518.535 331.371C518.303 326.958 515.517 320.224 510.408 319.992C505.299 319.528 502.28 324.172 503.674 328.816Z" fill="#F1C3B4"/>
<path d="M541.757 305.827C540.828 307.685 543.383 313.49 537.577 312.097C531.772 310.703 531.307 313.258 527.36 317.205C523.18 321.153 515.052 315.115 515.052 315.115L505.996 316.277C505.996 316.277 499.262 310.239 503.442 307.22C507.621 303.969 508.55 299.557 511.105 293.984C513.659 288.643 524.805 281.677 536.88 289.804C536.88 289.804 543.15 287.714 545.937 289.107C548.723 290.733 551.046 294.913 551.046 294.913C551.046 294.913 554.297 291.43 557.548 294.681C560.799 298.164 558.244 310.239 561.031 313.258C563.817 316.277 557.548 319.992 557.548 319.992C557.548 319.992 552.671 318.831 552.671 315.348C552.671 309.078 551.742 306.756 548.723 305.595C546.866 304.898 545.472 306.524 545.472 306.524C545.472 306.524 543.383 303.04 541.757 305.827Z" fill="#263238"/>
<path d="M899.869 336.214L866 352.94L832.131 336.214L866 319.557L899.869 336.214Z" fill="white" stroke="#8695F0"/>
<path d="M866.5 354.301L899.867 370.711L866.5 387.121V354.301Z" fill="white" stroke="#8695F0"/>
<path d="M831.5 337.018L864.869 353.497L831.5 369.908V337.018Z" fill="white" stroke="#8695F0"/>
<path d="M865.5 354.301V387.121L832.133 370.711L865.5 354.301Z" fill="white" stroke="#8695F0"/>
</svg>
